HIERARCHY
ROOT Hips
{
	OFFSET 55.310501 45.591206 43.872097
	CHANNELS 6 Xposition Yposition Zposition Zrotation Xrotation Yrotation
	JOINT Chest
	{
		OFFSET -0.153500 1.163101 7.852402
		CHANNELS 6 Xposition Yposition Zposition Zrotation Xrotation Yrotation
		JOINT Chest2
		{
			OFFSET 0.000000 0.000000 3.343300
			CHANNELS 6 Xposition Yposition Zposition Zrotation Xrotation Yrotation
			JOINT Neck
			{
				OFFSET 0.000000 0.000000 7.785500
				CHANNELS 6 Xposition Yposition Zposition Zrotation Xrotation Yrotation
				JOINT Head
				{
					OFFSET 0.000000 0.000000 2.173901
					CHANNELS 6 Xposition Yposition Zposition Zrotation Xrotation Yrotation
					End Site
					{
						OFFSET 0.000000 0.000000 10.528198
					}
				}
			}
			JOINT LeftCollar
			{
				OFFSET 2.676300 -1.652401 4.938301
				CHANNELS 6 Xposition Yposition Zposition Zrotation Xrotation Yrotation
				JOINT LeftShoulder
				{
					OFFSET 4.299000 0.000000 0.000000
					CHANNELS 6 Xposition Yposition Zposition Zrotation Xrotation Yrotation
					JOINT LeftElbow
					{
						OFFSET 0.000000 0.000000 -10.245102
						CHANNELS 6 Xposition Yposition Zposition Zrotation Xrotation Yrotation
						JOINT LeftWrist
						{
							OFFSET 0.000000 0.000000 -12.703300
							CHANNELS 6 Xposition Yposition Zposition Zrotation Xrotation Yrotation
							End Site
							{
								OFFSET 0.000000 0.000000 -2.173901
							}
						}
					}
				}
			}
			JOINT RightCollar
			{
				OFFSET -2.534599 -1.686401 5.195000
				CHANNELS 6 Xposition Yposition Zposition Zrotation Xrotation Yrotation
				JOINT RightShoulder
				{
					OFFSET -4.144100 0.000000 0.000000
					CHANNELS 6 Xposition Yposition Zposition Zrotation Xrotation Yrotation
					JOINT RightElbow
					{
						OFFSET 0.000000 0.000000 -10.116501
						CHANNELS 6 Xposition Yposition Zposition Zrotation Xrotation Yrotation
						JOINT RightWrist
						{
							OFFSET 0.000000 0.000000 -12.937801
							CHANNELS 6 Xposition Yposition Zposition Zrotation Xrotation Yrotation
							End Site
							{
								OFFSET 0.000000 0.000000 -2.173901
							}
						}
					}
				}
			}
		}
	}
	JOINT LeftHip
	{
		OFFSET 2.175598 0.064499 -2.662899
		CHANNELS 6 Xposition Yposition Zposition Zrotation Xrotation Yrotation
		JOINT LeftKnee
		{
			OFFSET 0.000000 -0.000004 -18.585800
			CHANNELS 6 Xposition Yposition Zposition Zrotation Xrotation Yrotation
			JOINT LeftAnkle
			{
				OFFSET 0.000000 0.000000 -18.979500
				CHANNELS 6 Xposition Yposition Zposition Zrotation Xrotation Yrotation
				End Site
				{
					OFFSET 0.000000 -9.264000 0.000000
				}
			}
		}
	}
	JOINT RightHip
	{
		OFFSET -2.092400 -0.058102 -2.581200
		CHANNELS 6 Xposition Yposition Zposition Zrotation Xrotation Yrotation
		JOINT RightKnee
		{
			OFFSET 0.000000 -0.000004 -18.665001
			CHANNELS 6 Xposition Yposition Zposition Zrotation Xrotation Yrotation
			JOINT RightAnkle
			{
				OFFSET 0.000000 0.000000 -18.566601
				CHANNELS 6 Xposition Yposition Zposition Zrotation Xrotation Yrotation
				End Site
				{
					OFFSET 0.000000 -8.497601 0.000000
				}
			}
		}
	}
}
MOTION
Frames: 6
Frame Time: 0.041667
60.521004 23.904308 16.024590 1462.949148 35.213839 -0.188329 -0.153504 1.163094 7.852405 -17.797229 20.270946 17.562447 -0.000003 0.000005 3.343305 19.339944 -12.610035 2.231629 0.000002 -0.000001 7.785501 -5.853835 10.362997 -0.069058 -0.000001 0.000005 2.173912 -2.681142 -3.873729 -4.235097 2.676300 -1.652394 4.938300 1.466280 8.291673 -0.237235 4.299007 -0.000009 0.000001 -61.942972 7.187660 -100.389205 0.000001 0.000008 -10.245103 -24.955894 714.235450 -0.827661 -0.000004 0.000014 -12.703297 1268.407656 -185.887341 553.426295 -2.534597 -1.686403 5.194997 11.864979 17.959947 -3.825472 -4.144108 -0.000001 -0.000005 76.577970 -8.726112 107.918867 0.000001 0.000002 -10.116497 -4.883663 -14.438325 -7.212033 0.000007 0.000001 -12.937801 -344.894937 -365.924024 11.740395 2.175591 0.064497 -2.662889 -567.793735 -18.262169 128.339487 0.000001 0.000007 -18.585800 24.859433 -210.794036 -105.840755 -0.000004 -0.000002 -18.979500 786.124174 23.144909 -143.167691 -2.092395 -0.058092 -2.581196 957.745955 -10.887702 -93.107383 0.000010 -0.000004 -18.665003 -1647.325897 2.160278 -145.346043 -0.000006 -0.000000 -18.566610 718.713376 34.297279 -138.354675
60.189606 24.018204 15.798895 1462.923685 34.522027 -0.483667 -0.153498 1.163105 7.852410 -18.131552 19.898224 17.649130 0.000001 -0.000003 3.343299 19.196885 -12.649042 1.919305 -0.000003 -0.000005 7.785499 -5.489382 10.931973 0.117043 -0.000006 0.000006 2.173901 -2.393518 -3.802823 -4.066678 2.676291 -1.652405 4.938303 1.662696 8.127718 -0.312087 4.298998 0.000007 0.000000 -63.442444 7.015636 -100.546067 -0.000005 0.000003 -10.245104 -23.767018 712.901268 -0.851033 0.000000 0.000010 -12.703299 1265.019664 -185.080177 555.165917 -2.534599 -1.686404 5.194998 12.327936 17.821589 -3.507047 -4.144100 -0.000001 0.000001 76.418574 -8.992190 108.282554 0.000012 0.000000 -10.116490 -7.269705 -15.237594 -8.364166 0.000009 -0.000003 -12.937805 -342.491476 -367.275200 9.663895 2.175583 0.064506 -2.662894 -567.881708 -18.372669 127.613192 -0.000003 0.000000 -18.585798 25.237035 -210.941786 -106.788935 0.000013 0.000002 -18.979504 785.519784 23.903480 -142.983467 -2.092404 -0.058096 -2.581194 958.128227 -11.144056 -93.351850 0.000010 0.000006 -18.665001 -1647.625442 2.742237 -145.923221 -0.000009 -0.000007 -18.566608 719.924779 34.146257 -136.866172
59.871201 24.131607 15.574198 1462.981168 33.854727 -0.813146 -0.153499 1.163102 7.852403 -18.542049 19.421581 17.782637 0.000003 0.000007 3.343309 18.848202 -12.701620 1.889992 0.000003 0.000002 7.785502 -4.779317 11.561223 -0.232536 0.000005 0.000009 2.173909 -2.140662 -3.742498 -3.824307 2.676295 -1.652392 4.938302 1.911971 7.882802 -0.110578 4.299002 -0.000000 -0.000004 -64.503323 7.489579 -100.901449 -0.000004 0.000008 -10.245096 -22.098461 711.360104 -0.789383 -0.000003 0.000016 -12.703300 1261.574844 -184.127092 556.899201 -2.534597 -1.686399 5.195001 13.164442 17.612336 -3.586452 -4.144100 0.000006 -0.000010 76.120860 -9.124695 108.792209 0.000007 -0.000000 -10.116500 -9.727207 -15.966252 -9.670794 0.000004 0.000001 -12.937805 -340.409060 -368.738827 7.253517 2.175591 0.064502 -2.662897 -567.995471 -18.413147 126.935377 -0.000002 0.000004 -18.585804 25.557168 -210.945215 -107.699277 -0.000003 -0.000002 -18.979506 785.028776 24.496701 -143.198782 -2.092402 -0.058100 -2.581199 958.490391 -11.772779 -93.611110 0.000004 -0.000010 -18.665005 -1647.909468 3.662988 -146.526436 -0.000004 0.000007 -18.566610 721.890999 34.111891 -134.748690
59.563305 24.246006 15.353502 1463.144874 33.192698 -1.168479 -0.153510 1.163098 7.852401 -19.030224 18.906117 17.901212 -0.000003 0.000007 3.343300 18.426073 -12.747968 1.847383 0.000001 -0.000000 7.785505 -3.937727 12.207471 -0.685116 0.000007 0.000002 2.173900 -1.912569 -3.693709 -3.508866 2.676297 -1.652401 4.938303 2.347587 7.627151 -0.880715 4.299001 0.000004 -0.000001 -65.487628 7.161699 -100.835756 -0.000000 0.000010 -10.245105 -20.141179 709.593544 -0.678164 -0.000004 0.000002 -12.703295 1258.212206 -183.064779 558.602377 -2.534599 -1.686400 5.194999 11.946605 16.981571 -3.431632 -4.144112 -0.000004 0.000007 77.590969 -8.683459 108.885455 0.000005 0.000002 -10.116500 -12.087656 -16.730152 -10.998508 0.000000 0.000005 -12.937804 -338.661106 -370.330753 4.620508 2.175587 0.064507 -2.662892 -568.155134 -18.469487 126.312819 -0.000007 0.000001 -18.585804 25.954917 -210.981852 -108.587987 -0.000003 0.000000 -18.979506 784.546783 25.067991 -143.504665 -2.092402 -0.058099 -2.581196 958.792449 -12.150807 -93.856560 0.000002 0.000004 -18.665005 -1647.713305 4.767483 -147.142519 -0.000007 0.000000 -18.566607 724.575864 34.239479 -131.925992
59.265209 24.358503 15.134792 1463.350872 32.527389 -1.553930 -0.153498 1.163097 7.852410 -19.584837 18.272571 18.168423 0.000004 0.000010 3.343302 17.909499 -12.809093 1.780845 -0.000002 -0.000001 7.785504 -2.958849 12.901595 -1.409743 -0.000002 -0.000004 2.173901 -1.629932 -3.590245 -3.146355 2.676300 -1.652394 4.938304 2.867281 7.404596 -1.856296 4.299011 0.000000 0.000000 -66.189546 6.712077 -100.771115 -0.000006 0.000008 -10.245095 -18.121954 707.614155 -0.509435 -0.000001 0.000010 -12.703305 1254.977537 -181.884891 560.222279 -2.534600 -1.686398 5.194995 12.376355 16.770582 -3.757357 -4.144099 0.000000 -0.000008 77.659565 -8.428105 109.587366 0.000004 -0.000005 -10.116500 -14.347839 -17.417802 -12.439485 0.000004 -0.000004 -12.937803 -337.121772 -371.864759 1.825143 2.175587 0.064494 -2.662894 -568.356925 -18.521644 125.690084 -0.000002 -0.000005 -18.585800 26.502177 -211.273474 -109.504858 0.000008 0.000003 -18.979519 783.882779 25.611355 -143.767969 -2.092405 -0.058095 -2.581192 959.079754 -12.480612 -94.091306 0.000003 0.000003 -18.665005 -1646.933352 6.233102 -147.864484 -0.000003 -0.000006 -18.566605 728.868884 34.710332 -127.541680
58.980804 24.470312 14.916590 1463.545942 31.835819 -1.958303 -0.153494 1.163100 7.852400 -20.120071 17.571894 18.442366 -0.000003 0.000006 3.343300 17.434316 -12.801204 1.707518 -0.000003 -0.000001 7.785504 -1.948906 13.628130 -2.159446 -0.000004 0.000006 2.173901 -1.396205 -3.486546 -2.764265 2.676291 -1.652401 4.938299 3.062174 7.421571 -2.770287 4.299006 0.000000 -0.000002 -66.287471 6.064605 -100.931140 -0.000003 0.000002 -10.245109 -16.093005 705.358717 -0.303771 0.000001 -0.000004 -12.703292 1251.960452 -180.645909 561.829067 -2.534597 -1.686403 5.194999 12.783201 16.594527 -4.074286 -4.144095 -0.000010 0.000010 77.599166 -8.107346 110.423907 0.000005 0.000008 -10.116496 -16.553672 -18.047938 -13.940637 0.000002 0.000005 -12.937805 -335.794175 -373.526080 -1.020491 2.175600 0.064497 -2.662897 -568.566967 -18.603601 125.044344 -0.000003 0.000001 -18.585814 27.171124 -211.712874 -110.449589 -0.000010 -0.000001 -18.979519 783.146977 26.128651 -143.992136 -2.092391 -0.058100 -2.581195 959.380392 -12.851191 -94.302578 0.000000 -0.000000 -18.665005 -1646.228368 7.600082 -148.547831 -0.000007 -0.000001 -18.566608 732.959676 35.410965 -123.276267
